<svg xmlns="http://www.w3.org/2000/svg" version="1.1" xmlns:xlink="http://www.w3.org/1999/xlink" xmlns:svgjs="http://svgjs.dev/svgjs" width="1000" height="1000"><g clip-path="url(#SvgjsClipPath1107)"><rect width="1000" height="1000" fill="#ffffff"></rect><g transform="matrix(1.0189228529839884,0,0,1.0189228529839884,150,289.08296943231437)"><svg xmlns="http://www.w3.org/2000/svg" version="1.1" xmlns:xlink="http://www.w3.org/1999/xlink" xmlns:svgjs="http://svgjs.dev/svgjs" width="687px" height="414px"><svg xmlns="http://www.w3.org/2000/svg" width="687px" height="414px" viewBox="0 0 687 414" version="1.1" fill="currentColor">
    <title>mtrl</title>
    <g id="mtrl" transform="translate(0.2, 0.321)" fill="currentColor" fill-rule="nonzero">
        <path d="M-2.84217094e-14,409.31389 L-2.84217094e-14,121.985082 L61.2,110.47415 L61.2,134.51389 L62.4,134.51389 C68.8,124.91389 76.5,117.01389 85.5,110.81389 C94.5,104.61389 106,101.51389 120,101.51389 C133.2,101.51389 144.2,104.71389 153,111.11389 C161.8,117.51389 169,124.51389 174.6,132.11389 C182.2,123.71389 190.6,116.51389 199.8,110.51389 C209,104.51389 221.8,101.51389 238.2,101.51389 C245.8,101.51389 253.6,102.81389 261.6,105.41389 C269.6,108.01389 276.8,112.31389 283.2,118.31389 C289.6,124.31389 294.8,132.01389 298.8,141.41389 C302.8,150.81389 304.8,162.31389 304.8,175.91389 L304.8,409.31389 L243.6,409.31389 L243.6,198.71389 C243.6,187.51389 241,178.71389 235.8,172.31389 C230.6,165.91389 223.2,162.71389 213.6,162.71389 C202,162.71389 194,166.31389 189.6,173.51389 C185.2,180.71389 183,191.11389 183,204.71389 L183,409.31389 L121.8,409.31389 L121.8,198.71389 C121.8,187.51389 119.2,178.71389 114,172.31389 C108.8,165.91389 101.4,162.71389 91.8,162.71389 C80.2,162.71389 72.2,166.31389 67.8,173.51389 C63.4,180.71389 61.2,191.11389 61.2,204.71389 L61.2,409.31389 L-2.84217094e-14,409.31389 Z" id="Path"></path>
        <path d="M340.2,105.11389 L340.2,58.6504698 L401.4,47.3377819 L401.4,105.11389 L439.2,105.11389 L439.2,153.11389 L401.4,153.11389 L401.4,321.71389 C401.4,328.91389 402.1,334.51389 403.5,338.51389 C404.9,342.51389 407.2,345.51389 410.4,347.51389 C413.6,349.51389 417.5,350.71389 422.1,351.11389 C426.7,351.51389 432.4,351.71389 439.2,351.71389 L439.2,409.31389 L414,409.31389 C400,409.31389 388.3,407.11389 378.9,402.71389 C369.5,398.31389 362,392.71389 356.4,385.91389 C350.8,379.11389 346.7,371.41389 344.1,362.81389 C341.5,354.21389 340.2,345.91389 340.2,337.91389 L340.2,153.11389 L309.6,153.11389 L309.6,105.11389 L340.2,105.11389 Z" id="Path"></path>
        <path d="M445.6,409.31389 L445.6,105.11389 L506.8,105.11389 L506.8,137.51389 C519.2,126.31389 531.4,117.51389 543.4,111.11389 C555.4,104.71389 570.2,101.51389 587.8,101.51389 L587.8,166.31389 C581.8,163.91389 575.6,162.71389 569.2,162.71389 C562.8,162.71389 555.9,163.81389 548.5,166.01389 C541.1,168.21389 534.4,171.91389 528.4,177.11389 C522,182.31389 516.8,189.11389 512.8,197.51389 C508.8,205.91389 506.8,216.31389 506.8,228.71389 L506.8,409.31389 L445.6,409.31389 Z" id="Path"></path>
        <path d="M594.8,11.3550208 L656,0 L656,323.51389 C656,335.11389 658.1,343.01389 662.3,347.21389 C666.5,351.41389 674.4,354.11389 686,355.31389 L686,412.91389 C672,412.91389 659.4,411.81389 648.2,409.61389 C637,407.41389 627.4,403.11389 619.4,396.71389 C611.4,390.71389 605.3,382.21389 601.1,371.21389 C596.9,360.21389 594.8,345.71389 594.8,327.71389 L594.8,11.3550208 Z" id="Path"></path>
    </g>
</svg></svg></g></g><defs><clipPath id="SvgjsClipPath1107"><rect width="1000" height="1000" x="0" y="0" rx="500" ry="500"></rect></clipPath></defs></svg>